<svg width="85" height="25" viewBox="0 0 85 25" fill="none" xmlns="http://www.w3.org/2000/svg">
<g clip-path="url(#clip0_22_46)">
<path d="M21.1272 18.3395C20.5501 19.6412 20.2732 20.222 19.53 21.3718C18.4931 22.9785 17.031 24.9766 15.2193 24.9947C13.6089 25.0096 13.195 23.93 11.0102 23.9413C8.82577 23.953 8.36978 25.0134 6.76024 24.9984C4.94856 24.9817 3.56305 23.1763 2.52527 21.571C-0.374833 17.0809 -0.678276 11.8118 1.10986 9.01101C2.38087 7.02124 4.38672 5.8565 6.27303 5.8565C8.19355 5.8565 9.40052 6.9269 10.9874 6.9269C12.5276 6.9269 13.4655 5.85474 15.6859 5.85474C17.3634 5.85474 19.1413 6.78496 20.4088 8.38889C16.2585 10.7017 16.9334 16.7275 21.1272 18.3395Z" fill="#C8C8C8"/>
<path d="M14.0025 4.05923C14.8088 3.00651 15.4214 1.52054 15.1993 0.00109863C13.8811 0.0937198 12.3396 0.946408 11.4404 2.05741C10.6239 3.06585 9.9499 4.56167 10.2116 6.01605C11.6505 6.06078 13.1389 5.18695 14.0025 4.05923Z" fill="#C8C8C8"/>
<path d="M28.4896 11.2033C28.4896 12.1155 27.8077 12.8511 26.7402 12.8511C25.7161 12.8511 25.0342 12.1142 25.0555 11.2033C25.0342 10.25 25.7163 9.53442 26.7616 9.53442C27.807 9.53442 28.4688 10.25 28.4896 11.2033ZM25.1419 24.7594V14.1529H28.3836V24.7594H25.1419ZM33.8634 12.917H30.0037V10.1411H41.0501V12.917H37.1264V24.7594H33.8626L33.8634 12.917ZM51.3497 21.3547C51.3497 22.7423 51.3928 23.87 51.4341 24.7601H48.6193L48.4701 23.2637H48.4052C48.0001 23.9138 47.0186 24.9994 45.1417 24.9994C43.0301 24.9994 41.4735 23.6535 41.4735 20.3788V14.1551H44.7367V19.8592C44.7367 21.399 45.2271 22.3309 46.3573 22.3309C47.2538 22.3309 47.7651 21.7025 47.9779 21.182C48.0623 20.9868 48.0831 20.7266 48.0831 20.4663V14.1551H51.3471V21.3552L51.3497 21.3547ZM53.9504 17.536C53.9504 16.2122 53.9078 15.0845 53.8656 14.1533H56.6804L56.8296 15.6067H56.8945C57.3205 14.9349 58.3859 13.9151 60.1145 13.9151C62.2473 13.9151 63.8453 15.3465 63.8453 18.4694V24.7594H60.6045V18.8815C60.6045 17.5161 60.135 16.5827 58.9631 16.5827C58.0665 16.5827 57.5337 17.2125 57.3214 17.8175C57.2365 18.0343 57.1941 18.3381 57.1941 18.6417V24.7577H53.9522V17.5364L53.9504 17.536ZM68.9419 20.5085C69.0485 21.8748 70.3711 22.5257 71.8851 22.5257C72.994 22.5257 73.89 22.3739 74.7634 22.0925L75.1903 24.3253C74.1246 24.7595 72.8233 24.9972 71.415 24.9972C67.8743 24.9972 65.8495 22.8941 65.8495 19.5746C65.8495 16.885 67.4914 13.9151 71.1165 13.9151C74.4867 13.9151 75.7656 16.5814 75.7656 19.2073C75.7656 19.7712 75.7013 20.2704 75.66 20.508L68.9419 20.5085ZM72.7593 18.2516C72.7593 17.4501 72.4173 16.1046 70.925 16.1046C69.5602 16.1046 69.006 17.362 68.9198 18.2516H72.7593ZM77.6845 21.8747C78.2829 22.242 79.5187 22.6762 80.4782 22.6762C81.4596 22.6762 81.8648 22.3284 81.8648 21.7867C81.8648 21.245 81.5445 20.9847 80.329 20.5722C78.1748 19.8353 77.3432 18.6424 77.365 17.4058C77.365 15.4106 79.0284 13.9133 81.6095 13.9133C82.8245 13.9133 83.9139 14.1958 84.5527 14.5215L83.9763 16.7991C83.5063 16.5389 82.6121 16.1909 81.716 16.1909C80.9279 16.1909 80.4793 16.5166 80.4793 17.0583C80.4793 17.5576 80.8845 17.8183 82.164 18.2733C84.1476 18.9668 84.9791 19.987 85.0004 21.548C85.0004 23.522 83.4652 24.9968 80.4793 24.9968C79.1155 24.9968 77.8976 24.6705 77.1094 24.2364L77.6845 21.8747Z" fill="#C8C8C8"/>
</g>
<defs>
<clipPath id="clip0_22_46">
<rect width="85" height="25" fill="white"/>
</clipPath>
</defs>
</svg>
