<svg width="102" height="25" viewBox="0 0 102 25" fill="none" xmlns="http://www.w3.org/2000/svg">
<path d="M23.7804 16.5926C23.7804 21.8358 26.2895 24.9738 30.0176 24.9738C31.8765 24.9738 33.4409 24.307 34.3145 22.5549V24.9738H37.7175V0H34.1825V10.6172C33.38 8.86506 31.8969 8.08054 30.0379 8.08054C26.4013 8.06747 23.7804 11.2709 23.7804 16.5926ZM34.2942 16.5926C34.2942 19.5868 32.7095 21.4566 30.8099 21.4566C28.8392 21.4566 27.3256 19.5868 27.3256 16.5926C27.3256 13.546 28.8494 11.637 30.8099 11.637C32.7095 11.637 34.2942 13.5722 34.2942 16.5926ZM48.7189 18.5277C48.3126 20.4629 47.2866 21.4304 45.6714 21.4304C43.7921 21.4304 42.2481 19.966 42.2075 17.3771H51.1162C51.228 16.7364 51.2788 16.0565 51.2788 15.3112C51.2788 10.6695 48.8205 8.05439 45.194 8.05439C41.3237 8.05439 38.6622 11.5978 38.6622 16.4095C38.6622 21.7704 41.598 24.9869 45.6613 24.9869C48.729 24.9869 50.8115 23.3394 51.7257 20.0575L48.7189 18.5277ZM42.2075 14.3436C42.5427 12.4738 43.7515 11.3755 45.2041 11.3755C46.7888 11.3755 47.8656 12.4738 47.8656 14.1998L47.8453 14.3436H42.2075ZM61.8332 18.5277C61.4268 20.4629 60.4009 21.4304 58.7857 21.4304C56.9064 21.4304 55.3624 19.966 55.3217 17.3771H64.2305C64.3423 16.7364 64.3931 16.0565 64.3931 15.3112C64.3931 10.6695 61.9348 8.05439 58.3083 8.05439C54.438 8.05439 51.7765 11.5978 51.7765 16.4095C51.7765 21.7704 54.7122 24.9869 58.7755 24.9869C61.8433 24.9869 63.9258 23.3394 64.84 20.0575L61.8332 18.5277ZM55.3217 14.3436C55.657 12.4738 56.8658 11.3755 58.3184 11.3755C59.9031 11.3755 60.9799 12.4738 60.9799 14.1998L60.9596 14.3436H55.3217ZM76.8674 25V20.8813H69.4417L76.6642 11.8332V8.06747H65.2362V11.9901H72.2149L65.0127 21.0774V25H76.8674ZM87.1983 18.5277C86.792 20.4629 85.766 21.4304 84.1508 21.4304C82.2715 21.4304 80.7275 19.966 80.6869 17.3771H89.5956C89.7074 16.7364 89.7582 16.0565 89.7582 15.3112C89.7582 10.6695 87.2999 8.05439 83.6734 8.05439C79.8031 8.05439 77.1416 11.5978 77.1416 16.4095C77.1416 21.7704 80.0774 24.9869 84.1407 24.9869C87.2084 24.9869 89.2909 23.3394 90.2051 20.0575L87.1983 18.5277ZM80.6869 14.3436C81.0221 12.4738 82.2309 11.3755 83.6835 11.3755C85.2682 11.3755 86.345 12.4738 86.345 14.1998L86.3247 14.3436H80.6869Z" fill="#C8C8C8"/>
<path fill-rule="evenodd" clip-rule="evenodd" d="M15.796 8.0675H20.1539V11.3494H15.796V8.0675Z" fill="#C8C8C8"/>
<path fill-rule="evenodd" clip-rule="evenodd" d="M15.796 12.6177H20.1539V15.8996H15.796V12.6177Z" fill="#C8C8C8"/>
<path fill-rule="evenodd" clip-rule="evenodd" d="M15.796 17.1678H20.1539V20.4497H15.796V17.1678Z" fill="#C8C8C8"/>
<path fill-rule="evenodd" clip-rule="evenodd" d="M0 21.7181H4.35788V25H0V21.7181Z" fill="#C8C8C8"/>
<path fill-rule="evenodd" clip-rule="evenodd" d="M5.26199 21.7181H9.61988V25H5.26199V21.7181Z" fill="#C8C8C8"/>
<path fill-rule="evenodd" clip-rule="evenodd" d="M10.5341 21.7181H14.8919V25H10.5341V21.7181Z" fill="#C8C8C8"/>
<path fill-rule="evenodd" clip-rule="evenodd" d="M15.796 21.7181H20.1539V25H15.796V21.7181Z" fill="#C8C8C8"/>
<path fill-rule="evenodd" clip-rule="evenodd" d="M10.5341 17.1678H14.8919V20.4497H10.5341V17.1678Z" fill="#C8C8C8"/>
<path fill-rule="evenodd" clip-rule="evenodd" d="M5.26199 17.1678H9.61988V20.4497H5.26199V17.1678Z" fill="#C8C8C8"/>
<path fill-rule="evenodd" clip-rule="evenodd" d="M5.26199 12.6177H9.61988V15.8996H5.26199V12.6177Z" fill="#C8C8C8"/>
<path d="M98.1387 13.9121V14.3959H101.582V13.1015C101.582 10.1988 100.17 8.09363 97.8035 8.09363C96.2797 8.09363 95.203 9.04813 94.6442 10.6302V8.09363H91.0889V25H94.6442V14.1083C94.6442 12.3823 95.3655 11.4278 96.4727 11.4278C97.4886 11.4409 98.1387 12.67 98.1387 13.9121Z" fill="#C8C8C8"/>
</svg>
