<svg width="84" height="25" viewBox="0 0 84 25" fill="none" xmlns="http://www.w3.org/2000/svg">
<g clip-path="url(#clip0_22_44)">
<path d="M12.5969 0C5.63995 0 0 5.5964 0 12.4998C0 19.4039 5.63995 25 12.5969 25C19.5541 25 25.1937 19.4039 25.1937 12.4998C25.1937 5.59684 19.5544 0.000596604 12.5967 0.000596604L12.5969 0ZM18.3737 18.0283C18.1475 18.3965 17.664 18.5119 17.2941 18.2875C14.336 16.4935 10.6128 16.0882 6.22794 17.0822C5.80541 17.1783 5.38422 16.9155 5.28796 16.4963C5.19124 16.0771 5.45492 15.6591 5.87851 15.5636C10.677 14.475 14.793 14.9435 18.1133 16.9568C18.4833 17.1822 18.6007 17.6614 18.3735 18.0286L18.3737 18.0283ZM19.9155 14.6252C19.6306 15.0839 19.0262 15.2277 18.5646 14.9461C15.1793 12.8811 10.0172 12.283 6.01224 13.4894C5.49283 13.6451 4.94424 13.3546 4.7866 12.8401C4.63016 12.3247 4.92304 11.7814 5.44154 11.6246C10.0164 10.2472 15.7035 10.9144 19.592 13.2855C20.0538 13.5676 20.1997 14.1677 19.9154 14.6253L19.9155 14.6252ZM20.0479 11.081C15.9874 8.68813 9.28964 8.46812 5.4134 9.63552C4.79096 9.82284 4.1327 9.47416 3.94407 8.8565C3.75544 8.23855 4.10653 7.5858 4.72943 7.39803C9.17909 6.05763 16.5761 6.3166 21.2504 9.0701C21.8102 9.39982 21.9939 10.1173 21.6621 10.6722C21.3311 11.2277 20.6061 11.4109 20.048 11.081H20.0479ZM34.2719 11.5395C32.0969 11.0249 31.7097 10.6637 31.7097 9.90464C31.7097 9.18758 32.3901 8.705 33.4018 8.705C34.3826 8.705 35.3551 9.07145 36.3746 9.82584C36.4055 9.84868 36.4441 9.85777 36.4822 9.85181C36.5202 9.84613 36.5539 9.82538 36.5762 9.79419L37.6382 8.3087C37.6818 8.2475 37.6699 8.16317 37.6111 8.11644C36.3976 7.15025 35.0312 6.68051 33.434 6.68051C31.0856 6.68051 29.4453 8.07898 29.4453 10.0799C29.4453 12.2256 30.8603 12.9853 33.3056 13.5718C35.3868 14.0475 35.7381 14.446 35.7381 15.1585C35.7381 15.9479 35.0278 16.4387 33.8847 16.4387C32.6151 16.4387 31.5796 16.0144 30.4212 15.0189C30.3925 14.9943 30.3531 14.9831 30.3167 14.9852C30.2783 14.9883 30.2433 15.0059 30.2189 15.035L29.0281 16.4413C28.9782 16.4996 28.9845 16.5868 29.0423 16.6373C30.3901 17.8312 32.0477 18.4619 33.8366 18.4619C36.3671 18.4619 38.0024 17.0898 38.0024 14.9662C38.0069 13.1736 36.9254 12.1809 34.2764 11.5415L34.2719 11.5395ZM43.7274 9.41102C42.6306 9.41102 41.7309 9.83971 40.989 10.7181V9.7294C40.989 9.65134 40.9252 9.58775 40.8467 9.58775H38.8992C38.8205 9.58775 38.7569 9.65134 38.7569 9.7294V20.7156C38.7569 20.7937 38.8205 20.8573 38.8992 20.8573H40.8467C40.9252 20.8573 40.989 20.7937 40.989 20.7156V17.2477C41.731 18.0741 42.6309 18.4778 43.7274 18.4778C45.7655 18.4778 47.8287 16.921 47.8287 13.945C47.8317 10.9682 45.7679 9.41088 43.7297 9.41088L43.7274 9.41102ZM45.5641 13.945C45.5641 15.4605 44.6234 16.518 43.2763 16.518C41.9446 16.518 40.9401 15.4124 40.9401 13.945C40.9401 12.4777 41.9446 11.3719 43.2763 11.3719C44.6016 11.3718 45.5643 12.4536 45.5643 13.9448L45.5641 13.945ZM53.1168 9.41102C50.4921 9.41102 48.4358 11.4166 48.4358 13.9773C48.4358 16.5102 50.478 18.4947 53.0847 18.4947C55.7187 18.4947 57.7813 16.4959 57.7813 13.9449C57.7813 11.4028 55.7325 9.41132 53.1167 9.41132L53.1168 9.41102ZM53.1168 16.5331C51.7208 16.5331 50.6683 15.42 50.6683 13.9442C50.6683 12.4621 51.6844 11.3867 53.0846 11.3867C54.4897 11.3867 55.5493 12.4998 55.5493 13.9766C55.5493 15.4584 54.5264 16.5331 53.117 16.5331H53.1168ZM63.3862 9.58776H61.2431V7.41356C61.2431 7.33564 61.1796 7.27206 61.101 7.27206H59.1538C59.0749 7.27206 59.011 7.33564 59.011 7.41356V9.58776H58.0746C57.9963 9.58776 57.9328 9.65134 57.9328 9.72941V11.3903C57.9328 11.4682 57.9963 11.5319 58.0746 11.5319H59.011V15.8294C59.011 17.5661 59.8821 18.4467 61.6001 18.4467C62.2987 18.4467 62.8782 18.3035 63.4244 17.9962C63.4688 17.9715 63.4963 17.9241 63.4963 17.8736V16.292C63.4963 16.2432 63.4707 16.1971 63.4286 16.1716C63.3862 16.1451 63.3334 16.1438 63.2899 16.1651C62.9148 16.3525 62.5521 16.4389 62.1467 16.4389C61.5219 16.4389 61.2431 16.1574 61.2431 15.5264V11.5327H63.3862C63.4649 11.5327 63.5282 11.4691 63.5282 11.391V9.73031C63.5312 9.65225 63.468 9.58866 63.3883 9.58866L63.3862 9.58776ZM70.8532 9.59626V9.32922C70.8532 8.54363 71.1567 8.19331 71.8376 8.19331C72.2436 8.19331 72.5697 8.27332 72.9349 8.39423C72.9799 8.40826 73.0268 8.40124 73.0634 8.37452C73.101 8.3478 73.1222 8.30496 73.1222 8.25959V6.6311C73.1222 6.56885 73.0819 6.51378 73.0214 6.49541C72.6355 6.38152 72.1419 6.26465 71.4027 6.26465C69.6039 6.26465 68.6531 7.2698 68.6531 9.1704V9.57938H67.7175C67.639 9.57938 67.5746 9.64297 67.5746 9.72089V11.3903C67.5746 11.4682 67.639 11.5319 67.7175 11.5319H68.6531V18.1606C68.6531 18.2387 68.7166 18.3023 68.7951 18.3023H70.7426C70.8213 18.3023 70.8854 18.2387 70.8854 18.1606V11.5324H72.7037L75.4891 18.1595C75.1729 18.8558 74.862 18.9943 74.4375 18.9943C74.0944 18.9943 73.733 18.8927 73.3636 18.692C73.3288 18.6731 73.2876 18.6699 73.2502 18.6814C73.213 18.6944 73.1817 18.7219 73.1659 18.7577L72.5059 20.1947C72.4744 20.2626 72.5014 20.3423 72.5673 20.3775C73.2563 20.7479 73.8784 20.9059 74.6472 20.9059C76.0852 20.9059 76.88 20.2413 77.5807 18.4531L80.9594 9.7897C80.9763 9.74612 80.9712 9.69686 80.9443 9.65821C80.9175 9.61984 80.8744 9.59671 80.8271 9.59671H78.7997C78.739 9.59671 78.6846 9.63506 78.6648 9.69164L76.5879 15.5784L74.3131 9.68776C74.2923 9.63298 74.2391 9.5967 74.1801 9.5967H70.8527L70.8532 9.59626ZM66.524 9.58776H64.5765C64.4978 9.58776 64.4337 9.65134 64.4337 9.72941V18.1607C64.4337 18.2387 64.4978 18.3023 64.5765 18.3023H66.524C66.6025 18.3023 66.6668 18.2387 66.6668 18.1607V9.73C66.6668 9.71137 66.6631 9.69292 66.656 9.6757C66.6488 9.65849 66.6383 9.64285 66.625 9.62969C66.6117 9.61652 66.5959 9.60609 66.5786 9.599C66.5612 9.59191 66.5426 9.58829 66.5239 9.58835L66.524 9.58776ZM65.5613 5.7488C64.7898 5.7488 64.1637 6.36855 64.1637 7.13413C64.1637 7.90016 64.7899 8.52067 65.5613 8.52067C66.3325 8.52067 66.958 7.90016 66.958 7.13413C66.958 6.3687 66.3322 5.7488 65.5621 5.7488H65.5613ZM82.6223 12.2986C81.8515 12.2986 81.2518 11.6843 81.2518 10.9385C81.2518 10.1926 81.8593 9.57133 82.6295 9.57133C83.4003 9.57133 84 10.1854 84 10.9307C84 11.6766 83.3923 12.2986 82.6221 12.2986H82.6223ZM82.6298 9.70657C81.9278 9.70657 81.3966 10.2603 81.3966 10.9385C81.3966 11.6163 81.924 12.1626 82.6227 12.1626C83.3246 12.1626 83.8563 11.6093 83.8563 10.9307C83.8563 10.2529 83.3284 9.70657 82.6304 9.70657H82.6298ZM82.9337 11.0705L83.3213 11.6091H82.9944L82.6454 11.115H82.3454V11.6091H82.0718V10.1815H82.7133C83.0475 10.1815 83.2673 10.3512 83.2673 10.6369C83.2688 10.871 83.1319 11.014 82.9349 11.0706L82.9337 11.0705ZM82.702 10.4265H82.3452V10.878H82.702C82.8801 10.878 82.9864 10.7916 82.9864 10.652C82.9864 10.5051 82.8796 10.4265 82.7021 10.4265L82.702 10.4265Z" fill="#C8C8C8"/>
</g>
<defs>
<clipPath id="clip0_22_44">
<rect width="84" height="25" fill="white"/>
</clipPath>
</defs>
</svg>
