<svg width="103" height="25" viewBox="0 0 103 25" fill="none" xmlns="http://www.w3.org/2000/svg">
<path d="M31.914 3.89151C31.5383 2.35849 30.4378 1.14976 29.042 0.737028C26.4921 0 16.2925 0 16.2925 0C16.2925 0 6.09292 0 3.54302 0.737028C2.14729 1.14976 1.0468 2.35849 0.671027 3.89151C0 6.69222 0 12.5 0 12.5C0 12.5 0 18.3373 0.671027 21.1085C1.0468 22.6415 2.14729 23.8502 3.54302 24.263C6.09292 25 16.2925 25 16.2925 25C16.2925 25 26.4921 25 29.042 24.263C30.4378 23.8502 31.5383 22.6415 31.914 21.1085C32.5851 18.3078 32.5851 12.5 32.5851 12.5C32.5851 12.5 32.5851 6.69222 31.914 3.89151Z" fill="#C8C8C8"/>
<path d="M13.0179 17.895L21.4997 12.5294L13.0179 7.1344V17.895Z" fill="#F5F5F5"/>
<path d="M47.3208 22.7889C46.6766 22.3172 46.2203 21.5802 45.9519 20.5483C45.6835 19.546 45.5493 18.1898 45.5493 16.5389V14.2688C45.5493 12.5884 45.7103 11.2323 46.0056 10.2004C46.3277 9.16859 46.8108 8.43157 47.455 7.95987C48.126 7.48817 48.9849 7.25232 50.0586 7.25232C51.1054 7.25232 51.9643 7.48817 52.6085 7.95987C53.2527 8.43157 53.709 9.19807 54.0042 10.2004C54.2995 11.2028 54.4605 12.5589 54.4605 14.2688V16.5389C54.4605 18.2193 54.3263 19.546 54.0311 20.5778C53.7358 21.5801 53.2795 22.3467 52.6353 22.8184C51.9911 23.2901 51.1054 23.5259 50.0049 23.5259C48.8507 23.4964 47.965 23.2606 47.3208 22.7889ZM50.9443 20.3419C51.1322 19.8408 51.2127 18.9858 51.2127 17.836V12.9422C51.2127 11.8219 51.1322 10.9964 50.9443 10.4658C50.7565 9.9351 50.4612 9.69925 50.0049 9.69925C49.5754 9.69925 49.2534 9.96458 49.0923 10.4658C48.9044 10.9964 48.8239 11.8219 48.8239 12.9422V17.836C48.8239 18.9858 48.9044 19.8408 49.0923 20.3419C49.2534 20.8431 49.5754 21.1085 50.0317 21.1085C50.4344 21.1085 50.7565 20.8431 50.9443 20.3419Z" fill="#C8C8C8"/>
<path d="M96.8426 16.5684V17.3644C96.8426 18.3667 96.8694 19.1332 96.9231 19.6344C96.9768 20.1356 97.0841 20.5188 97.272 20.7252C97.4331 20.961 97.7015 21.079 98.0773 21.079C98.5604 21.079 98.8825 20.8726 99.0704 20.4599C99.2583 20.0471 99.3388 19.3691 99.3656 18.3962L102.13 18.5731C102.157 18.7205 102.157 18.8974 102.157 19.1332C102.157 20.5778 101.808 21.6686 101.083 22.3761C100.359 23.0837 99.3388 23.4375 98.0236 23.4375C96.44 23.4375 95.3395 22.8773 94.6953 21.7865C94.0511 20.6957 93.729 19.0153 93.729 16.7158V13.974C93.729 11.6155 94.0511 9.90562 94.7221 8.81482C95.3932 7.72402 96.5205 7.19336 98.1041 7.19336C99.2046 7.19336 100.064 7.42921 100.654 7.87143C101.245 8.31364 101.647 9.02119 101.889 9.93511C102.13 10.8785 102.238 12.1757 102.238 13.8266V16.5094H96.8426V16.5684ZM97.2452 9.96459C97.0841 10.2004 96.9768 10.5542 96.9231 11.0554C96.8694 11.5566 96.8426 12.3231 96.8426 13.3549V14.4752H99.2046V13.3549C99.2046 12.3526 99.1777 11.586 99.1241 11.0554C99.0704 10.5247 98.9362 10.171 98.7751 9.96459C98.6141 9.75822 98.3457 9.64029 98.0236 9.64029C97.6746 9.64029 97.4062 9.75822 97.2452 9.96459Z" fill="#C8C8C8"/>
<path d="M39.4832 16.2736L35.8328 1.73938H39.0269L40.3153 8.31367C40.6374 9.93513 40.8789 11.3207 41.04 12.4705H41.1205C41.2279 11.645 41.4694 10.2889 41.8452 8.34315L43.1873 1.73938H46.3814L42.6773 16.2736V23.2606H39.5101V16.2736H39.4832Z" fill="#C8C8C8"/>
<path d="M64.8212 7.54712V23.2606H62.2981L62.0297 21.3443H61.9492C61.2782 22.7889 60.2314 23.5259 58.8625 23.5259C57.923 23.5259 57.2252 23.1721 56.7689 22.4941C56.3126 21.816 56.0978 20.7547 56.0978 19.2806V7.54712H59.3188V19.0742C59.3188 19.7818 59.3993 20.283 59.5335 20.5778C59.6677 20.8726 59.9093 21.02 60.2314 21.02C60.4998 21.02 60.7682 20.9316 61.0366 20.7252C61.305 20.5483 61.4929 20.3125 61.6003 20.0176V7.54712H64.8212Z" fill="#C8C8C8"/>
<path d="M81.3284 7.54712V23.2606H78.8054L78.537 21.3443H78.4565C77.7854 22.7889 76.7386 23.5259 75.3697 23.5259C74.4303 23.5259 73.7324 23.1721 73.2761 22.4941C72.8198 21.816 72.6051 20.7547 72.6051 19.2806V7.54712H75.826V19.0742C75.826 19.7818 75.9066 20.283 76.0408 20.5778C76.175 20.8726 76.4165 21.02 76.7386 21.02C77.007 21.02 77.2754 20.9316 77.5439 20.7252C77.8123 20.5483 78.0002 20.3125 78.1075 20.0176V7.54712H81.3284Z" fill="#C8C8C8"/>
<path d="M73.5714 4.59905H70.3773V23.2606H67.2369V4.62853H64.0428V1.79834H73.5714V4.59905Z" fill="#C8C8C8"/>
<path d="M91.9843 10.053C91.7964 9.05067 91.4744 8.34312 91.0449 7.90091C90.6154 7.45869 89.9981 7.22284 89.2465 7.22284C88.656 7.22284 88.0924 7.39973 87.5824 7.78298C87.0724 8.13675 86.6698 8.63793 86.4014 9.22756H86.3746V0.943359H83.261V23.2606H85.9183L86.2403 21.7865H86.3209C86.5624 22.3172 86.9382 22.7299 87.4482 23.0542C87.9582 23.349 88.495 23.5259 89.1123 23.5259C90.2128 23.5259 90.9912 22.9658 91.5012 21.875C92.0112 20.7842 92.2796 19.0448 92.2796 16.7158V14.2393C92.2796 12.4115 92.1722 11.0554 91.9843 10.053ZM89.0318 16.4504C89.0318 17.6002 88.9781 18.4846 88.8976 19.1332C88.8171 19.7818 88.656 20.2535 88.4682 20.5188C88.2534 20.7842 87.985 20.9316 87.6629 20.9316C87.3945 20.9316 87.1529 20.8726 86.9382 20.7252C86.7235 20.5778 86.5356 20.3714 86.4014 20.1061V11.2028C86.5088 10.7901 86.6966 10.4363 86.9651 10.1415C87.2335 9.87614 87.5287 9.72873 87.824 9.72873C88.1461 9.72873 88.4145 9.87614 88.5755 10.1415C88.7634 10.4363 88.8708 10.908 88.9513 11.5566C89.0318 12.2346 89.0587 13.178 89.0587 14.3868V16.4504H89.0318Z" fill="#C8C8C8"/>
</svg>
